<?xml version="1.0" standalone="no"?>
<!DOCTYPE svg PUBLIC "-//W3C//DTD SVG 20010904//EN"
 "http://www.w3.org/TR/2001/REC-SVG-20010904/DTD/svg10.dtd">
<svg version="1.0" xmlns="http://www.w3.org/2000/svg"
 width="304.000000pt" height="304.000000pt" viewBox="0 0 304.000000 304.000000"
 preserveAspectRatio="xMidYMid meet">
<metadata>
Created by potrace 1.11, written by Peter Selinger 2001-2013
</metadata>
<g transform="translate(0.000000,304.000000) scale(0.100000,-0.100000)"
fill="#000000" stroke="none">
<path d="M0 1520 l0 -1520 1520 0 1520 0 0 1520 0 1520 -1520 0 -1520 0 0
-1520z m2510 1360 c0 -20 -8 -20 -952 -22 l-953 -3 -5 -1325 c-5 -1317 -5
-1325 -25 -1325 -20 0 -20 8 -23 1335 -1 734 0 1341 3 1348 3 9 209 12 980 12
968 0 975 0 975 -20z m0 -170 c0 -20 -8 -20 -882 -22 l-883 -3 -5 -1240 c-5
-1232 -5 -1240 -25 -1240 -20 0 -20 8 -23 1263 l-2 1262 910 0 c903 0 910 0
910 -20z m-2 -352 l-3 -193 -592 -3 -593 -2 0 -395 0 -395 593 -2 592 -3 3
-192 2 -193 -615 0 -615 0 0 -390 0 -390 -197 2 -198 3 -3 1173 -2 1172 815 0
815 0 -2 -192z"/>
</g>
</svg>
